<svg height="512" viewBox="0 0 60 60" width="512" xmlns="http://www.w3.org/2000/svg"><g id="Page-1" fill="none" fill-rule="evenodd"><g id="070---Magic-Septre" fill="rgb(0,0,0)" fill-rule="nonzero"><path id="Shape" d="m43.407 13.765c.7809997-.7807639 2.0470003-.7807639 2.828 0 .3923789.3789722 1.0160848.3735524 1.4018186-.0121814s.3911536-1.0094397.0121814-1.4018186c-1.5619994-1.5615278-4.0940006-1.5615278-5.656 0-.3789722.3923789-.3735524 1.0160848.0121814 1.4018186s1.0094397.3911536 1.4018186.0121814z"/><path id="Shape" d="m0 55.613c-.00233436.797464.31709881 1.5621568.886 2.121l1.375 1.375c.55948034.5715978 1.32616333.8929123 2.126.891.79774292.0022636 1.56271966-.3171376 2.122-.886l4.28-4.28c.009-.008.021-.011.029-.02s.011-.02.02-.029l3.7-3.7c.009-.008.021-.011.029-.02s.011-.02.02-.029l23.555-23.554c2.2826609 1.2637579 4.8488576 1.9271565 7.458 1.928 3.2237919.0199134 6.3657106-1.0146337 8.947-2.946l.084-.066.086-.066c2.4538312-1.9036015 4.2578227-4.520507 5.164-7.491.255054-.8122307-.1096091-1.6903732-.865-2.083-.7321559-.3948594-1.6420768-.2077335-2.159.444-.4330543.5362635-.9188204 1.0277248-1.45 1.467-1.3974598 1.1418114-3.0857346 1.8711461-4.875 2.106 2.2316107-2.2704992 2.9026043-5.6490386 1.708-8.6l5.568-.681c.9025848-.1041036 1.6139982-.8171752 1.716-1.72l.458-3.77c.079807-.62742499-.1350493-1.25648875-.582-1.704l-3.7-3.695c-.4456385-.44779102-1.0728484-.6651008-1.7-.589l-3.78.461c-.9038245.10147723-1.6174713.81429414-1.72 1.718l-.678 5.565c-2.9506236-1.19457208-6.3288024-.52443568-8.6 1.706.2342012-1.78865988.9632478-3.47637681 2.105-4.873.4411641-.53147776.9346458-1.017254 1.473-1.45.6517772-.51702579.8381604-1.42743582.442-2.159-.3925478-.75491928-1.2700725-1.11950086-2.082-.865-2.9717609.90634134-5.589764 2.7110656-7.494 5.166l-.064.084-.066.084c-3.5211593 4.8005785-3.9227177 11.2126231-1.028 16.415l-31.618 31.617c-.57086498.5607173-.89169274 1.3278201-.89 2.128zm9.647-8.056 2.8 2.795-2.336 2.336-2.795-2.8zm4.21 1.381-2.8-2.8 18.932-18.923 2.8 2.8zm26.049-30.259-4.242 4.243c-1.6290538-1.9382048-2.658918-4.3085604-2.964-6.822l5.474-.235c.4403261 1.0157226 1.0235558 1.9633025 1.732 2.814zm1.415 1.415c.8516782.7101772 1.8006373 1.2947738 2.818 1.736l-.239 5.47c-2.5154118-.304289-4.8875364-1.3353605-6.826-2.967zm9.679 2.616 1.6 2.666c-2.0014805 1.2866193-4.321077 1.9918459-6.7 2.037l.211-4.92c1.5997823.3914426 3.2608283.4651687 4.889.217zm5.681-2.5c.3-.252.595-.519.873-.8-.7539769 1.8065177-1.9059255 3.4195875-3.37 4.719l-1.148-1.915c1.3286891-.4377447 2.5650958-1.1171412 3.647-2.004zm-2.392-18.19 3.711 3.732-.291 2.514-2.986-2.984-2.97-2.969zm-3.973 1.68 2.284 2.287-.706.706c-.2599566.25107447-.3642126.62287789-.2726972.97250732.0915155.34962944.3645604.6226744.7141899.71418984.3496294.09151544.7214328-.01274058.9725073-.27269716l.706-.706 2.269 2.268-5.133.631c-.2075639-.2721392-.4320052-.53098148-.672-.775-.2444715-.24057779-.5039952-.46536477-.777-.673zm-5.5 5.473c2.4272543-.00029091 4.6155815 1.4618717 5.5442266 3.7044554s.4146513 4.8237667-1.3022266 6.5395446c-.5406417.5405363-1.1811834.9708472-1.886 1.267-1.9590298-.3500717-3.7664411-1.2842784-5.185-2.68-1.3957216-1.4185589-2.3299283-3.2259702-2.68-5.185.2961528-.7048166.7264637-1.3453583 1.267-1.886 1.124122-1.12935934 2.653554-1.76173103 4.247-1.756zm-4.23-6.729c-.277.278-.544.569-.8.873-.8877827 1.08097361-1.568816 2.31625751-2.009 3.644l-1.91-1.147c1.2997594-1.46368888 2.9127346-2.61556989 4.719-3.37zm-5.962 4.956 2.666 1.6c-.248301 1.6284982-.1745743 3.289897.217 4.89l-4.921.211c.0442716-2.3795194.749935-4.69976015 2.038-6.701zm.3 17.677c.4714987.464459.975074.895188 1.507 1.289l-2.231 2.234-2.8-2.8 2.23-2.23c.3950933.5320601.8271618 1.0356388 1.293 1.507zm-32.624 29.823 3.6-3.6 2.8 2.795-3.6 3.6c-.18334618.1902822-.43576382.2984612-.7.3-.26662081.0001246-.52183159-.1081685-.707-.3l-1.393-1.38c-.18863417-.184054-.29500096-.4364498-.295-.7-.00280457-.2684974.1036831-.5265946.295-.715z"/></g></g></svg>